<svg width="67" height="67" viewBox="0 0 46 46" fill="none" xmlns="http://www.w3.org/2000/svg">
<path d="M23 17.2572C24.1372 17.2572 25.2489 17.5944 26.1945 18.2263C27.1401 18.8581 27.8771 19.7561 28.3123 20.8068C28.7475 21.8574 28.8614 23.0136 28.6395 24.129C28.4177 25.2444 27.87 26.2689 27.0659 27.0731C26.2617 27.8772 25.2372 28.4249 24.1218 28.6467C23.0064 28.8686 21.8502 28.7547 20.7996 28.3195C19.7489 27.8843 18.8509 27.1473 18.2191 26.2017C17.5872 25.2561 17.25 24.1444 17.25 23.0072C17.2519 21.4828 17.8583 20.0214 18.9362 18.9434C20.0142 17.8655 21.4756 17.2591 23 17.2572ZM23 14.3822C21.2941 14.3822 19.6266 14.888 18.2082 15.8358C16.7898 16.7835 15.6843 18.1305 15.0315 19.7066C14.3787 21.2826 14.2079 23.0168 14.5407 24.6899C14.8735 26.3629 15.695 27.8998 16.9012 29.106C18.1074 30.3122 19.6443 31.1337 21.3173 31.4665C22.9904 31.7993 24.7246 31.6285 26.3006 30.9757C27.8767 30.3229 29.2237 29.2174 30.1714 27.799C31.1192 26.3806 31.625 24.7131 31.625 23.0072C31.625 20.7197 30.7163 18.5259 29.0988 16.9084C27.4813 15.2909 25.2875 14.3822 23 14.3822Z" fill="white"/>
<path d="M7.75391 9.79371L9.78653 7.75964L14.8264 12.7995L12.7938 14.8321L7.75391 9.79371Z" fill="white"/>
<path d="M2.875 21.5697H10.0625V24.4447H2.875V21.5697Z" fill="white"/>
<path d="M7.75391 36.2207L12.7938 31.1808L14.8264 33.2149L9.78653 38.2533L7.75391 36.2207Z" fill="white"/>
<path d="M21.5625 35.9447H24.4375V43.1322H21.5625V35.9447Z" fill="white"/>
<path d="M31.1751 33.2149L33.2077 31.1808L38.2476 36.2207L36.215 38.2533L31.1751 33.2149Z" fill="white"/>
<path d="M35.9375 21.5697H43.125V24.4447H35.9375V21.5697Z" fill="white"/>
<path d="M31.1751 12.7995L36.215 7.75964L38.2476 9.79371L33.2077 14.8321L31.1751 12.7995Z" fill="white"/>
<path d="M21.5625 2.8822H24.4375V10.0697H21.5625V2.8822Z" fill="white"/>
</svg>
