<svg width="67" height="67" viewBox="0 0 67 67" fill="none" xmlns="http://www.w3.org/2000/svg">
<path d="M36.8501 23.45C45.1078 23.45 49.7911 28.7229 50.4712 35.0879H50.6789C55.992 35.0879 60.3001 39.2318 60.3001 44.3439C60.3001 49.456 55.992 53.6 50.6789 53.6H23.0213C17.7082 53.6 13.4001 49.456 13.4001 44.3439C13.4001 39.2318 17.7082 35.0879 23.0213 35.0879H23.229C23.9157 28.6793 28.5923 23.45 36.8501 23.45ZM36.8501 26.8C31.3226 26.8 26.5086 31.0545 26.5086 36.9337C26.5086 37.865 25.6577 38.5953 24.6829 38.5953H22.8404C19.477 38.5953 16.7501 41.205 16.7501 44.4243C16.7501 47.637 19.477 50.25 22.8404 50.25H50.8598C54.2232 50.25 56.9501 47.6403 56.9501 44.421C56.9501 41.205 54.2232 38.5953 50.8598 38.5953H49.0173C48.0458 38.5953 47.1915 37.865 47.1915 36.9337C47.1915 30.9808 42.3776 26.8 36.8501 26.8ZM28.1133 13.4C32.9909 13.4 37.2454 16.1738 39.3458 20.2507C37.9187 20.0738 36.4768 20.0491 35.0444 20.177C34.2169 19.112 33.1574 18.2497 31.9465 17.6558C30.7355 17.062 29.405 16.7522 28.0563 16.75C23.7147 16.75 20.0163 19.9191 19.2793 24.2037L19.1554 24.9072C19.0211 25.6858 18.6159 26.3918 18.0115 26.9006C17.4071 27.4094 16.6423 27.6882 15.8523 27.6877H14.988C12.2611 27.6877 10.0501 29.9255 10.0501 32.6859C10.0501 34.5954 11.1053 36.2537 12.6564 37.0945C11.9395 38.0057 11.3499 39.0241 10.9144 40.1162C9.31846 39.1439 8.07425 37.688 7.36261 35.96C6.65097 34.232 6.50899 32.3221 6.95732 30.5079C7.40564 28.6937 8.42089 27.0697 9.85549 25.8721C11.2901 24.6745 13.0693 23.9657 14.9344 23.8486L15.6747 23.8319C16.1913 20.9084 17.7212 18.2604 19.9959 16.3527C22.2705 14.445 25.1445 13.3996 28.1133 13.4V13.4Z" fill="white"/>
</svg>
