<svg width="67" height="67" viewBox="0 0 67 67" fill="none" xmlns="http://www.w3.org/2000/svg">
<path d="M62.4859 31.4795C62.2513 30.9795 61.8904 30.5492 61.4388 30.2312C60.9872 29.9133 60.4604 29.7186 59.9106 29.6663C57.1701 29.3865 54.6286 28.1075 52.7709 26.0735C51.1765 24.2813 50.087 22.0977 49.6139 19.7461C49.1408 17.3946 49.3011 14.9595 50.0783 12.6902C50.2613 12.1424 50.2998 11.5566 50.1902 10.9896C50.0805 10.4225 49.8263 9.89336 49.4523 9.45328C49.109 9.04769 48.6656 8.739 48.166 8.55792C47.6665 8.37683 47.1282 8.32965 46.6048 8.42106L46.565 8.42734C42.9791 9.21511 39.7556 11.1696 37.3991 13.9849C35.0426 16.8002 33.6861 20.3174 33.5419 23.986C31.8524 23.362 30.0666 23.0389 28.2656 23.0312C24.9313 23.0489 21.6879 24.1203 18.9992 26.0923C16.3104 28.0643 14.314 30.8359 13.2953 34.0109C10.3837 34.8416 7.87071 36.6972 6.21975 39.2353C4.5688 41.7733 3.89126 44.8228 4.3121 47.8212C4.73294 50.8196 6.22377 53.5647 8.50963 55.5503C10.7955 57.5358 13.7222 58.6279 16.75 58.625H39.7813C41.8098 58.6329 43.8098 58.1475 45.6091 57.2107C47.4084 56.2739 48.9529 54.9138 50.1098 53.2474C51.2666 51.5811 52.001 49.6585 52.2498 47.6453C52.4985 45.6321 52.2541 43.5885 51.5377 41.6907C53.7226 41.3417 55.8092 40.5352 57.6609 39.324C59.5126 38.1127 61.0876 36.5241 62.2828 34.662C62.5902 34.1949 62.7707 33.6558 62.8063 33.0977C62.8419 32.5396 62.7315 31.9819 62.4859 31.4795V31.4795ZM39.7813 54.4375H16.75C14.6527 54.441 12.6307 53.6561 11.085 52.2384C9.53941 50.8208 8.58306 48.8739 8.40571 46.7841C8.22835 44.6943 8.84294 42.6142 10.1276 40.9564C11.4122 39.2985 13.273 38.1841 15.3409 37.8341L16.7291 37.5996L17.0327 36.2261C17.6008 33.6705 19.0235 31.385 21.0657 29.747C23.1079 28.109 25.6476 27.2163 28.2656 27.2163C30.8836 27.2163 33.4233 28.109 35.4656 29.747C37.5078 31.385 38.9304 33.6705 39.4986 36.2261L39.8022 37.5996L41.1904 37.8362C43.2556 38.1889 45.1131 39.3042 46.3952 40.9614C47.6772 42.6185 48.2904 44.6966 48.1132 46.7842C47.936 48.8719 46.9814 50.8169 45.4384 52.2342C43.8954 53.6516 41.8764 54.4379 39.7813 54.4375ZM49.1299 37.6854H49.0859C47.5201 35.934 45.4916 34.6602 43.2339 34.0109C42.2499 30.948 40.3498 28.2608 37.7901 26.3122C37.7692 26.1007 37.7147 25.8997 37.7043 25.684C37.5217 23.0055 38.1909 20.3378 39.6162 18.0626C41.0414 15.7874 43.1498 14.0213 45.6396 13.0168C44.9828 15.7988 45.0092 18.6984 45.7165 21.4679C46.4239 24.2375 47.7911 26.7946 49.7015 28.921C51.8754 31.2851 54.7303 32.9152 57.8713 33.5858C56.8044 34.8689 55.4682 35.9013 53.9574 36.6098C52.4467 37.3184 50.7985 37.6856 49.1299 37.6854V37.6854Z" fill="white"/>
</svg>
