<svg width="80" height="77" viewBox="0 0 80 77" fill="none" xmlns="http://www.w3.org/2000/svg">
    <path d="M17.9078 24.2887C18.43 24.2114 18.9134 23.9787 19.2891 23.6239C19.6647 23.2691 19.9135 22.8102 20 22.3125C21.8891 11.3606 30.2547 4.77274 40 4.77274C49.0516 4.77274 55.0969 10.4031 57.5313 16.3675C57.6877 16.7498 57.9457 17.0866 58.28 17.3447C58.6142 17.6028 59.0132 17.7734 59.4375 17.8396C67.25 19.0551 73.75 24.0352 73.75 32.6932C73.75 41.5526 66.1563 47.7273 56.875 47.7273H20.3125C12.5781 47.7273 6.25 44.0433 6.25 35.9148C6.25 28.6856 12.2922 25.1433 17.9078 24.2887V24.2887Z" stroke="white" stroke-width="4" stroke-linejoin="round"/>
    <path d="M22.5 57.2727L17.5 64.4318" stroke="white" stroke-width="4" stroke-linecap="round" stroke-linejoin="round"/>
    <path d="M35 57.2727L25 71.5909" stroke="white" stroke-width="4" stroke-linecap="round" stroke-linejoin="round"/>
    <path d="M47.5 57.2727L42.5 64.4318" stroke="white" stroke-width="4" stroke-linecap="round" stroke-linejoin="round"/>
    <path d="M60 57.2727L50 71.5909" stroke="white" stroke-width="4" stroke-linecap="round" stroke-linejoin="round"/>
    </svg>