<svg width="67" height="67" viewBox="0 0 67 67" fill="none" xmlns="http://www.w3.org/2000/svg">
<g clip-path="url(#clip0)">
<path d="M56.1336 17.9099C55.264 13.5263 53.0148 9.53581 49.715 6.52194C46.4151 3.50806 42.2376 1.62887 37.7933 1.15913C33.349 0.689391 28.871 1.65373 25.014 3.91116C21.157 6.16859 18.1233 9.6007 16.3565 13.7057C14.3751 13.4774 12.368 13.656 10.4581 14.2304C8.54811 14.8048 6.77549 15.763 5.24873 17.0464C3.72198 18.3297 2.47322 19.9111 1.57891 21.6939C0.684603 23.4766 0.163567 25.4231 0.047702 27.4142C-0.0681627 29.4053 0.223583 31.3991 0.905076 33.2735C1.58657 35.148 2.64347 36.8636 4.01107 38.3153C5.37866 39.7671 7.02818 40.9244 8.85862 41.7165C10.6891 42.5086 12.6619 42.9188 14.6564 42.9219H54.4376C57.6248 42.9255 60.6942 41.7176 63.0241 39.5429C65.3539 37.3681 66.7701 34.3891 66.9857 31.2092C67.2013 28.0294 66.2003 24.8865 64.1853 22.4171C62.1703 19.9477 59.292 18.3366 56.1336 17.9099V17.9099ZM35.5939 5.23437C39.7142 5.23352 43.6903 6.75137 46.7619 9.49772C49.8334 12.2441 51.785 16.0262 52.2434 20.1209C52.3003 20.6354 52.5458 21.1106 52.9325 21.4547C53.3191 21.7988 53.8195 21.9875 54.3371 21.9844H54.4376C56.6588 21.9849 58.7888 22.8678 60.359 24.4388C61.9293 26.0098 62.8111 28.1403 62.8105 30.3615C62.81 32.5827 61.9271 34.7126 60.3561 36.2829C58.7851 37.8531 56.6546 38.7349 54.4335 38.7344H14.6564C13.1743 38.7336 11.7093 38.4182 10.3582 37.809C9.00718 37.1998 7.80088 36.3106 6.81912 35.2003C5.83737 34.0901 5.10255 32.784 4.66326 31.3686C4.22398 29.9531 4.09025 28.4605 4.27091 26.9895C4.45158 25.5184 4.94253 24.1026 5.71128 22.8355C6.48003 21.5684 7.50906 20.4789 8.7303 19.6392C9.95155 18.7995 11.3372 18.2287 12.7955 17.9645C14.2538 17.7003 15.7516 17.7488 17.1898 18.1067C17.7029 18.2347 18.2454 18.1638 18.7084 17.9082C19.1713 17.6527 19.5204 17.2314 19.6856 16.7291C20.7922 13.384 22.9251 10.4728 25.781 8.40925C28.6369 6.3457 32.0705 5.23478 35.5939 5.23437V5.23437ZM10.9923 48.1562C11.27 48.1562 11.5362 48.2665 11.7326 48.4629C11.9289 48.6592 12.0392 48.9255 12.0392 49.2031V51.59L14.1371 50.3882C14.3776 50.2582 14.6594 50.2275 14.9223 50.3025C15.1851 50.3775 15.4082 50.5524 15.5438 50.7898C15.6794 51.0271 15.7169 51.3081 15.6481 51.5726C15.5793 51.8372 15.4097 52.0644 15.1756 52.2056L13.1028 53.3906L15.1756 54.5757C15.4097 54.7169 15.5793 54.944 15.6481 55.2086C15.7169 55.4732 15.6794 55.7541 15.5438 55.9915C15.4082 56.2288 15.1851 56.4037 14.9223 56.4787C14.6594 56.5538 14.3776 56.523 14.1371 56.3931L12.0392 55.1954V57.5781C12.0392 57.8558 11.9289 58.122 11.7326 58.3184C11.5362 58.5147 11.27 58.625 10.9923 58.625C10.7147 58.625 10.4484 58.5147 10.2521 58.3184C10.0557 58.122 9.94545 57.8558 9.94545 57.5781V55.1912L7.84751 56.3931C7.60703 56.523 7.32524 56.5538 7.06239 56.4787C6.79953 56.4037 6.57645 56.2288 6.44083 55.9915C6.3052 55.7541 6.26779 55.4732 6.33659 55.2086C6.40539 54.944 6.57495 54.7169 6.80901 54.5757L8.88182 53.3906L6.80901 52.2056C6.57495 52.0644 6.40539 51.8372 6.33659 51.5726C6.26779 51.3081 6.3052 51.0271 6.44083 50.7898C6.57645 50.5524 6.79953 50.3775 7.06239 50.3025C7.32524 50.2275 7.60703 50.2582 7.84751 50.3882L9.94545 51.5858V49.2031C9.94545 48.9255 10.0557 48.6592 10.2521 48.4629C10.4484 48.2665 10.7147 48.1562 10.9923 48.1562V48.1562ZM22.5079 56.5312C22.7856 56.5312 23.0519 56.6415 23.2482 56.8379C23.4445 57.0342 23.5548 57.3005 23.5548 57.5781V59.965L25.6528 58.7632C25.8932 58.6332 26.175 58.6025 26.4379 58.6775C26.7007 58.7525 26.9238 58.9274 27.0594 59.1648C27.1951 59.4021 27.2325 59.6831 27.1637 59.9476C27.0949 60.2122 26.9253 60.4394 26.6913 60.5806L24.6185 61.7656L26.6913 62.9507C26.9253 63.0919 27.0949 63.319 27.1637 63.5836C27.2325 63.8482 27.1951 64.1291 27.0594 64.3665C26.9238 64.6038 26.7007 64.7787 26.4379 64.8537C26.175 64.9288 25.8932 64.898 25.6528 64.7681L23.5548 63.5704V65.9531C23.5548 66.2308 23.4445 66.497 23.2482 66.6934C23.0519 66.8897 22.7856 67 22.5079 67C22.2303 67 21.964 66.8897 21.7677 66.6934C21.5714 66.497 21.4611 66.2308 21.4611 65.9531V63.5662L19.3631 64.7681C19.1227 64.898 18.8409 64.9288 18.578 64.8537C18.3152 64.7787 18.0921 64.6038 17.9565 64.3665C17.8208 64.1291 17.7834 63.8482 17.8522 63.5836C17.921 63.319 18.0906 63.0919 18.3246 62.9507L20.3974 61.7656L18.3246 60.5806C18.0906 60.4394 17.921 60.2122 17.8522 59.9476C17.7834 59.6831 17.8208 59.4021 17.9565 59.1648C18.0921 58.9274 18.3152 58.7525 18.578 58.6775C18.8409 58.6025 19.1227 58.6332 19.3631 58.7632L21.4611 59.9608V57.5781C21.4611 57.3005 21.5714 57.0342 21.7677 56.8379C21.964 56.6415 22.2303 56.5312 22.5079 56.5312ZM45.5392 56.5312C45.8169 56.5312 46.0831 56.6415 46.2795 56.8379C46.4758 57.0342 46.5861 57.3005 46.5861 57.5781V59.965L48.684 58.7632C48.9245 58.6332 49.2063 58.6025 49.4691 58.6775C49.732 58.7525 49.9551 58.9274 50.0907 59.1648C50.2263 59.4021 50.2637 59.6831 50.1949 59.9476C50.1261 60.2122 49.9566 60.4394 49.7225 60.5806L47.6497 61.7656L49.7225 62.9507C49.9566 63.0919 50.1261 63.319 50.1949 63.5836C50.2637 63.8482 50.2263 64.1291 50.0907 64.3665C49.9551 64.6038 49.732 64.7787 49.4691 64.8537C49.2063 64.9288 48.9245 64.898 48.684 64.7681L46.5861 63.5704V65.9531C46.5861 66.2308 46.4758 66.497 46.2795 66.6934C46.0831 66.8897 45.8169 67 45.5392 67C45.2616 67 44.9953 66.8897 44.7989 66.6934C44.6026 66.497 44.4923 66.2308 44.4923 65.9531V63.5662L42.3944 64.7681C42.1539 64.898 41.8721 64.9288 41.6093 64.8537C41.3464 64.7787 41.1233 64.6038 40.9877 64.3665C40.8521 64.1291 40.8147 63.8482 40.8835 63.5836C40.9523 63.319 41.1218 63.0919 41.3559 62.9507L43.4287 61.7656L41.3559 60.5806C41.1218 60.4394 40.9523 60.2122 40.8835 59.9476C40.8147 59.6831 40.8521 59.4021 40.9877 59.1648C41.1233 58.9274 41.3464 58.7525 41.6093 58.6775C41.8721 58.6025 42.1539 58.6332 42.3944 58.7632L44.4923 59.9608V57.5781C44.4923 57.3005 44.6026 57.0342 44.7989 56.8379C44.9953 56.6415 45.2616 56.5312 45.5392 56.5312ZM34.0236 48.1562C34.3012 48.1562 34.5675 48.2665 34.7638 48.4629C34.9602 48.6592 35.0705 48.9255 35.0705 49.2031V51.59L37.1684 50.3882C37.4089 50.2582 37.6907 50.2275 37.9535 50.3025C38.2164 50.3775 38.4394 50.5524 38.5751 50.7898C38.7107 51.0271 38.7481 51.3081 38.6793 51.5726C38.6105 51.8372 38.441 52.0644 38.2069 52.2056L36.1341 53.3906L38.2069 54.5757C38.441 54.7169 38.6105 54.944 38.6793 55.2086C38.7481 55.4732 38.7107 55.7541 38.5751 55.9915C38.4394 56.2288 38.2164 56.4037 37.9535 56.4787C37.6907 56.5538 37.4089 56.523 37.1684 56.3931L35.0705 55.1954V57.5781C35.0705 57.8558 34.9602 58.122 34.7638 58.3184C34.5675 58.5147 34.3012 58.625 34.0236 58.625C33.7459 58.625 33.4796 58.5147 33.2833 58.3184C33.087 58.122 32.9767 57.8558 32.9767 57.5781V55.1912L30.8788 56.3931C30.6383 56.523 30.3565 56.5538 30.0936 56.4787C29.8308 56.4037 29.6077 56.2288 29.4721 55.9915C29.3365 55.7541 29.299 55.4732 29.3678 55.2086C29.4366 54.944 29.6062 54.7169 29.8403 54.5757L31.9131 53.3906L29.8403 52.2056C29.6062 52.0644 29.4366 51.8372 29.3678 51.5726C29.299 51.3081 29.3365 51.0271 29.4721 50.7898C29.6077 50.5524 29.8308 50.3775 30.0936 50.3025C30.3565 50.2275 30.6383 50.2582 30.8788 50.3882L32.9767 51.5858V49.2031C32.9767 48.9255 33.087 48.6592 33.2833 48.4629C33.4796 48.2665 33.7459 48.1562 34.0236 48.1562ZM57.0548 48.1562C57.3325 48.1562 57.5988 48.2665 57.7951 48.4629C57.9914 48.6592 58.1017 48.9255 58.1017 49.2031V51.59L60.1996 50.3882C60.4401 50.2582 60.7219 50.2275 60.9848 50.3025C61.2476 50.3775 61.4707 50.5524 61.6063 50.7898C61.7419 51.0271 61.7794 51.3081 61.7106 51.5726C61.6418 51.8372 61.4722 52.0644 61.2381 52.2056L59.1653 53.3906L61.2381 54.5757C61.4722 54.7169 61.6418 54.944 61.7106 55.2086C61.7794 55.4732 61.7419 55.7541 61.6063 55.9915C61.4707 56.2288 61.2476 56.4037 60.9848 56.4787C60.7219 56.5538 60.4401 56.523 60.1996 56.3931L58.1017 55.1954V57.5781C58.1017 57.8558 57.9914 58.122 57.7951 58.3184C57.5988 58.5147 57.3325 58.625 57.0548 58.625C56.7772 58.625 56.5109 58.5147 56.3146 58.3184C56.1182 58.122 56.008 57.8558 56.008 57.5781V55.1912L53.91 56.3931C53.6695 56.523 53.3878 56.5538 53.1249 56.4787C52.862 56.4037 52.639 56.2288 52.5033 55.9915C52.3677 55.7541 52.3303 55.4732 52.3991 55.2086C52.4679 54.944 52.6375 54.7169 52.8715 54.5757L54.9443 53.3906L52.8715 52.2056C52.6375 52.0644 52.4679 51.8372 52.3991 51.5726C52.3303 51.3081 52.3677 51.0271 52.5033 50.7898C52.639 50.5524 52.862 50.3775 53.1249 50.3025C53.3878 50.2275 53.6695 50.2582 53.91 50.3882L56.008 51.5858V49.2031C56.008 48.9255 56.1182 48.6592 56.3146 48.4629C56.5109 48.2665 56.7772 48.1562 57.0548 48.1562Z" fill="white"/>
</g>
<defs>
<clipPath id="clip0">
<rect width="67" height="67" fill="white"/>
</clipPath>
</defs>
</svg>
