<svg width="67" height="67" viewBox="0 0 67 67" fill="none" xmlns="http://www.w3.org/2000/svg">
<path d="M13.9584 50.25C13.4062 50.25 12.8665 50.4137 12.4074 50.7205C11.9483 51.0272 11.5905 51.4632 11.3792 51.9733C11.1679 52.4835 11.1126 53.0448 11.2203 53.5863C11.3281 54.1278 11.5939 54.6253 11.9844 55.0157C12.3748 55.4061 12.8722 55.672 13.4137 55.7797C13.9553 55.8874 14.5166 55.8321 15.0267 55.6208C15.5368 55.4095 15.9728 55.0517 16.2795 54.5926C16.5863 54.1335 16.75 53.5938 16.75 53.0417C16.75 52.3013 16.4559 51.5912 15.9324 51.0677C15.4088 50.5441 14.6988 50.25 13.9584 50.25ZM53.0417 39.0833H33.5C32.7596 39.0833 32.0496 39.3775 31.526 39.901C31.0025 40.4245 30.7084 41.1346 30.7084 41.875C30.7084 42.6154 31.0025 43.3255 31.526 43.849C32.0496 44.3725 32.7596 44.6667 33.5 44.6667H53.0417C53.7821 44.6667 54.4922 44.9608 55.0157 45.4843C55.5392 46.0079 55.8334 46.7179 55.8334 47.4583C55.8334 48.1987 55.5392 48.9088 55.0157 49.4323C54.4922 49.9559 53.7821 50.25 53.0417 50.25C52.3013 50.25 51.5912 50.5441 51.0677 51.0677C50.5442 51.5912 50.25 52.3013 50.25 53.0417C50.25 53.7821 50.5442 54.4921 51.0677 55.0157C51.5912 55.5392 52.3013 55.8333 53.0417 55.8333C55.2629 55.8333 57.3931 54.951 58.9637 53.3804C60.5343 51.8097 61.4167 49.6795 61.4167 47.4583C61.4167 45.2371 60.5343 43.1069 58.9637 41.5363C57.3931 39.9657 55.2629 39.0833 53.0417 39.0833ZM39.0834 30.7083C39.0834 31.4487 39.3775 32.1588 39.901 32.6823C40.4246 33.2059 41.1346 33.5 41.875 33.5H53.0417C55.2629 33.5 57.3931 32.6176 58.9637 31.047C60.5343 29.4764 61.4167 27.3462 61.4167 25.125C61.4167 24.3846 61.1226 23.6745 60.599 23.151C60.0755 22.6275 59.3654 22.3333 58.625 22.3333C57.8846 22.3333 57.1746 22.6275 56.651 23.151C56.1275 23.6745 55.8334 24.3846 55.8334 25.125C55.8334 25.8654 55.5392 26.5755 55.0157 27.099C54.4922 27.6225 53.7821 27.9167 53.0417 27.9167H41.875C41.1346 27.9167 40.4246 28.2108 39.901 28.7343C39.3775 29.2579 39.0834 29.9679 39.0834 30.7083ZM27.9167 41.875C27.9167 41.1346 27.6226 40.4245 27.099 39.901C26.5755 39.3775 25.8654 39.0833 25.125 39.0833H16.75C15.2692 39.0833 13.8491 38.4951 12.802 37.448C11.7549 36.4009 11.1667 34.9808 11.1667 33.5C11.1667 32.0192 11.7549 30.5991 12.802 29.552C13.8491 28.5049 15.2692 27.9167 16.75 27.9167C17.4904 27.9167 18.2005 27.6225 18.724 27.099C19.2476 26.5755 19.5417 25.8654 19.5417 25.125C19.5488 21.8232 20.7262 18.6309 22.8645 16.1151C25.0029 13.5994 27.9638 11.9231 31.2213 11.3841C34.4788 10.8451 37.8219 11.4782 40.6567 13.1711C43.4914 14.864 45.6343 17.5069 46.7046 20.6304C46.9415 21.3338 47.4482 21.9142 48.1131 22.2441C48.778 22.5739 49.5467 22.6261 50.25 22.3892C50.9534 22.1522 51.5339 21.6456 51.8637 20.9807C52.1935 20.3158 52.2457 19.5471 52.0088 18.8437C50.5873 14.6636 47.792 11.088 44.0785 8.69959C40.365 6.31119 35.9521 5.25074 31.5589 5.69104C27.1656 6.13134 23.051 8.04642 19.8853 11.1243C16.7196 14.2021 14.6896 18.2613 14.1259 22.6404C11.4642 23.2778 9.1294 24.8705 7.56471 27.116C6.00003 29.3615 5.31448 32.1034 5.63826 34.8211C5.96203 37.5387 7.27259 40.0428 9.32103 41.8579C11.3695 43.6729 14.0132 44.6724 16.75 44.6667H25.125C25.8654 44.6667 26.5755 44.3725 27.099 43.849C27.6226 43.3255 27.9167 42.6154 27.9167 41.875ZM27.9167 30.7083C27.9167 31.2605 28.0804 31.8002 28.3872 32.2593C28.6939 32.7184 29.1299 33.0762 29.64 33.2875C30.1501 33.4988 30.7115 33.5541 31.253 33.4464C31.7945 33.3386 32.2919 33.0728 32.6824 32.6823C33.0728 32.2919 33.3387 31.7945 33.4464 31.253C33.5541 30.7114 33.4988 30.1501 33.2875 29.64C33.0762 29.1299 32.7184 28.6939 32.2593 28.3871C31.8002 28.0804 31.2605 27.9167 30.7084 27.9167C29.968 27.9167 29.2579 28.2108 28.7344 28.7343C28.2108 29.2579 27.9167 29.9679 27.9167 30.7083ZM39.0834 50.25H25.125C24.3846 50.25 23.6746 50.5441 23.151 51.0677C22.6275 51.5912 22.3334 52.3013 22.3334 53.0417C22.3334 53.7821 22.6275 54.4921 23.151 55.0157C23.6746 55.5392 24.3846 55.8333 25.125 55.8333H39.0834C39.8238 55.8333 40.5338 56.1275 41.0574 56.651C41.5809 57.1745 41.875 57.8846 41.875 58.625C41.875 59.3654 42.1692 60.0755 42.6927 60.599C43.2162 61.1225 43.9263 61.4167 44.6667 61.4167C45.4071 61.4167 46.1172 61.1225 46.6407 60.599C47.1642 60.0755 47.4584 59.3654 47.4584 58.625C47.4584 56.4038 46.576 54.2736 45.0054 52.703C43.4348 51.1324 41.3046 50.25 39.0834 50.25V50.25Z" fill="white"/>
</svg>
